<svg width="31" height="31" viewBox="0 0 31 31" fill="none" xmlns="http://www.w3.org/2000/svg">
<path d="M29.3185 14.0219C28.6149 14.0219 28.0438 14.593 28.0438 15.2966C28.0438 22.3254 22.3254 28.0438 15.2966 28.0438C8.26782 28.0438 2.54943 22.3254 2.54943 15.2966C2.54943 8.26782 8.26782 2.54943 15.2966 2.54943C18.7186 2.54943 21.9309 3.88661 24.3426 6.31495C24.8379 6.81464 25.6454 6.81783 26.1451 6.32132C26.6448 5.82546 26.6473 5.01856 26.1515 4.51887C23.2579 1.60487 19.4025 0 15.2966 0C6.8618 0 0 6.8618 0 15.2966C0 23.7314 6.8618 30.5932 15.2966 30.5932C23.7314 30.5932 30.5932 23.7314 30.5932 15.2966C30.5932 14.593 30.0221 14.0219 29.3185 14.0219Z" fill="black"/>
<rect x="8.0509" y="14.4915" width="14.4915" height="3.22034" rx="1" fill="black"/>
</svg>
