<svg id="Capa_1" data-name="Capa 1" xmlns="http://www.w3.org/2000/svg" viewBox="0 0 502.4 351.2"><defs><style>.cls-1{fill:#fff;}</style></defs><path class="cls-1" d="M501,266.8c-2.6-12.3-15.9-22.2-40-29.5-20.2-6.1-45.6-9.7-73.6-10.3l-2.7-113.8c-3.7-11.2-17-20.3-39.5-27.1s-51.8-10.5-82.7-10.5-59.9,3.7-81.9,10.5c-18.1,5.6-39.8,16-39.8,33.9a18.41,18.41,0,0,0,.3,3.3l1.1,45.6a119.73,119.73,0,1,0,52.9,210.5c18.8,4.4,40.9,6.8,64.3,7,5.1,27.7,65.2,40.4,121.2,40.4,30.8,0,59.8-3.8,82-10.6,18.3-5.6,39.8-16.1,39.8-34ZM186.2,105.3c20.2-6.2,47.3-9.7,76.1-9.7,28.5,0,56.6,3.5,77,9.7,21.8,6.6,26.5,13.4,26.5,14.8s-4.7,8.2-26.5,14.8c-20.3,6.1-48.4,9.7-76.9,9.7-27.6,0-53.8-3.2-73.7-9-21.5-6.2-27.6-13.1-28.1-15.3,0-.1-.1-.2-.2-.3C160.4,117.9,167.1,111.2,186.2,105.3Zm181.2,39.5v25a10.13,10.13,0,0,0-1.6,5.6c0,1.3-4.7,8.2-26.4,14.8-20.3,6.2-48.4,9.7-76.9,9.7-24.7,0-48.9-2.6-68.1-7.5-.3-.1-.6-.1-.8-.2a114.82,114.82,0,0,0-31.2-17.7l-.7-28.2a110.79,110.79,0,0,0,21.6,8.3c21.7,6.3,49.8,9.7,79.3,9.7,30.9,0,60.2-3.7,82.6-10.5A98.52,98.52,0,0,0,367.4,144.8ZM186.7,360.2a99.67,99.67,0,1,1-67.1-173.4,101.85,101.85,0,0,1,29.5,4.4,97.35,97.35,0,0,1,35.4,19.7,99.54,99.54,0,0,1,32.8,55.5,104.58,104.58,0,0,1,2,20.1A98.92,98.92,0,0,1,186.7,360.2Zm25.4,2.2a120.75,120.75,0,0,0,19.2-32.9c8.6.7,17.6,1.2,26.9,1.3a10.28,10.28,0,0,0,0,3.5l.4,32.2A304.27,304.27,0,0,1,212.1,362.4Zm26.7-87.8c5.9.4,12,.6,18.3.7a16,16,0,0,0,.5,2.1l.4,33.3c-7.2-.1-14.3-.4-21-.9a122.93,122.93,0,0,0,2.3-23.4C239.3,282.5,239.1,278.6,238.8,274.6Zm24.4-19.2h-.8c-9.7,0-18.9-.4-27.5-1.1a120.43,120.43,0,0,0-17.8-37.2,361.37,361.37,0,0,0,45.3,2.9c30.9,0,60.2-3.7,82.6-10.5a105.85,105.85,0,0,0,22.3-9.2V227c-25,.7-48.5,3.9-67.2,9.2Q273.7,243.7,263.2,255.4ZM277,270.3c1.7-3.1,9.2-9.2,28.7-14.6s45.1-8.5,71.9-8.5h.8c28.6,0,56.6,3.3,76.9,9.5,21,6.4,26.1,12.8,26.4,14.5v.1c-.1,1.5-5,8.4-27.2,15-20.5,6.1-47.6,9.4-76.1,9.4-26.5,0-52-3-71.6-8.3-18.8-5.1-26.9-11-29.3-14.4A8.57,8.57,0,0,0,277,270.3ZM482.4,382.1c0,1.4-4.4,8.3-25.7,14.9-20.4,6.3-47.4,9.8-76.2,9.8s-55.8-3.4-75.9-9.5c-19.1-5.9-25.5-12.5-25.5-14.7v-.2l-.1-6.1-.3-22.6a123.55,123.55,0,0,0,24.9,9c21,5.5,47.5,8.5,74.8,8.5,30.9,0,59.9-3.7,82.3-10.5,7.3-2.2,15.7-5.2,21.7-9.1v30.5Zm-1.3-55.4c0,1.4-4.6,8.2-26.1,14.8-20.5,6.2-47.7,9.6-76.7,9.6-54.4,0-91.4-12.1-100-21.7l-.4-31.6c23.6,12.3,63.3,17.9,100.5,17.9,30.4,0,59.3-3.6,81.6-10.2a109.36,109.36,0,0,0,22.5-9.1v25h0C482.4,322.9,481.1,324.7,481.1,326.7Z" transform="translate(0 -75.6)"/><path class="cls-1" d="M119.7,220.4a66,66,0,1,0,66,66A66,66,0,0,0,119.7,220.4Zm0,112.1a46,46,0,1,1,46-46A46,46,0,0,1,119.7,332.5Z" transform="translate(0 -75.6)"/></svg>