<svg width="73" height="73" viewBox="0 0 73 73" fill="none" xmlns="http://www.w3.org/2000/svg">
<path d="M69.9583 33.4583C68.2793 33.4583 66.9167 34.821 66.9167 36.5C66.9167 53.2718 53.2718 66.9167 36.5 66.9167C19.7283 66.9167 6.08333 53.2718 6.08333 36.5C6.08333 19.7283 19.7283 6.08333 36.5 6.08333C44.6654 6.08333 52.3304 9.27404 58.0852 15.0684C59.2669 16.2607 61.1938 16.2684 62.3861 15.0836C63.5784 13.9004 63.5845 11.975 62.4013 10.7827C55.4967 3.82946 46.2972 0 36.5 0C16.3733 0 0 16.3733 0 36.5C0 56.6267 16.3733 73 36.5 73C56.6267 73 73 56.6267 73 36.5C73 34.821 71.6373 33.4583 69.9583 33.4583Z" fill="black"/>
<path d="M50 43.6L41.9 35.5L50 27.4C51.4904 25.9096 51.4904 23.4904 50 22C48.5096 20.5096 46.0904 20.5096 44.6 22L36.5 30.1L28.4 22C26.9096 20.5096 24.4904 20.5096 23 22C21.5096 23.4904 21.5096 25.9096 23 27.4L31.1 35.5L23 43.6C21.5096 45.0904 21.5096 47.5096 23 49C24.4904 50.4904 26.9096 50.4904 28.4 49L36.5 40.9L44.6 49C46.0904 50.4904 48.5096 50.4904 50 49C51.4904 47.5096 51.4904 45.0904 50 43.6Z" fill="black"/>
</svg>
